<svg width="1584" height="396" viewBox="0 0 1584 396" fill="none" xmlns="http://www.w3.org/2000/svg">
<g clip-path="url(#clip0_233_10)">
<rect width="1584" height="396" fill="url(#paint0_linear_233_10)"/>
<path d="M-76.5341 336H-84.5341V344H-76.5341V336ZM-76.5341 59.6364V51.6364H-84.5341V59.6364H-76.5341ZM67.7202 69.6222L63.9607 76.6838L63.9806 76.6944L64.0005 76.7048L67.7202 69.6222ZM95.6534 96.206L88.6389 100.053L88.6455 100.065L88.6521 100.077L95.6534 96.206ZM98.4872 162.463L91.4672 158.627L91.4499 158.658L91.4329 158.69L98.4872 162.463ZM82.0242 180.815L77.6272 174.132L77.6069 174.145L77.5866 174.159L82.0242 180.815ZM60.0284 190.801L57.9235 183.083L52.0284 184.691V190.801H60.0284ZM60.0284 193.5H52.0284V201.006L59.5188 201.484L60.0284 193.5ZM85.5327 202.406L81.2607 209.17L81.2607 209.17L85.5327 202.406ZM106.179 299.97L113.132 303.927L113.132 303.927L106.179 299.97ZM76.3565 326.284L72.9134 319.063L72.9134 319.063L76.3565 326.284ZM-43.0682 306.312H-51.0682V314.312H-43.0682V306.312ZM69.8793 293.628L75.3007 299.511L75.3031 299.508L69.8793 293.628ZM76.6264 236.682L69.7529 240.775L69.7631 240.792L69.7734 240.809L76.6264 236.682ZM56.25 217.52L52.3892 224.527L52.4167 224.542L52.4444 224.557L56.25 217.52ZM-43.0682 210.233V202.233H-51.0682V210.233H-43.0682ZM-43.0682 181.085H-51.0682V189.085H-43.0682V181.085ZM46.2642 175.148L42.7818 167.945L42.7661 167.953L42.7505 167.961L46.2642 175.148ZM65.696 158.415L59.0652 153.939L59.0459 153.968L59.0268 153.996L65.696 158.415ZM60.2983 102.143L54.6116 107.77L54.6265 107.785L54.6414 107.8L60.2983 102.143ZM-43.0682 89.3239V81.3239H-51.0682V89.3239H-43.0682ZM-68.5341 336V59.6364H-84.5341V336H-68.5341ZM-76.5341 67.6364H20.0852V51.6364H-76.5341V67.6364ZM20.0852 67.6364C38.4751 67.6364 52.9537 70.8239 63.9607 76.6838L71.4796 62.5605C57.4772 55.106 40.1992 51.6364 20.0852 51.6364V67.6364ZM64.0005 76.7048C75.272 82.6244 83.3599 90.4261 88.6389 100.053L102.668 92.3593C95.7121 79.6752 85.1778 69.7544 71.4398 62.5395L64.0005 76.7048ZM88.6521 100.077C94.0704 109.877 96.8296 120.811 96.8296 133.045H112.83C112.83 118.291 109.471 104.665 102.655 92.3353L88.6521 100.077ZM96.8296 133.045C96.8296 144.026 94.868 152.404 91.4672 158.627L105.507 166.3C110.563 157.049 112.83 145.815 112.83 133.045H96.8296ZM91.4329 158.69C87.8773 165.337 83.2699 170.42 77.6272 174.132L86.4211 187.499C94.4527 182.215 100.821 175.062 105.541 166.236L91.4329 158.69ZM77.5866 174.159C71.5635 178.174 65.0206 181.147 57.9235 183.083L62.1333 198.519C70.8695 196.137 78.9905 192.453 86.4618 187.472L77.5866 174.159ZM52.0284 190.801V193.5H68.0284V190.801H52.0284ZM59.5188 201.484C66.4032 201.923 73.6286 204.35 81.2607 209.17L89.8046 195.642C80.344 189.667 70.5665 186.156 60.538 185.516L59.5188 201.484ZM81.2607 209.17C88.5466 213.772 94.8376 220.477 100.043 229.586L113.935 221.647C107.625 210.605 99.6116 201.836 89.8046 195.642L81.2607 209.17ZM100.043 229.586C104.954 238.18 107.625 249.058 107.625 262.591H123.625C123.625 246.976 120.538 233.204 113.935 221.647L100.043 229.586ZM107.625 262.591C107.625 275.183 104.777 286.259 99.2261 296.013L113.132 303.927C120.175 291.551 123.625 277.707 123.625 262.591H107.625ZM99.2261 296.013C93.8763 305.414 85.2969 313.158 72.9134 319.063L79.7997 333.505C94.5847 326.455 105.887 316.657 113.132 303.927L99.2261 296.013ZM72.9134 319.063C60.7746 324.851 44.3957 328 23.3239 328V344C45.7937 344 64.7699 340.672 79.7997 333.505L72.9134 319.063ZM23.3239 328H-76.5341V344H23.3239V328ZM-43.0682 314.312H23.3239V298.312H-43.0682V314.312ZM23.3239 314.312C45.8131 314.312 63.8757 310.04 75.3007 299.511L64.4578 287.745C57.5306 294.129 44.5562 298.312 23.3239 298.312V314.312ZM75.3031 299.508C86.1409 289.512 91.7784 277.064 91.7784 262.591H75.7784C75.7784 272.408 72.1499 280.65 64.4554 287.747L75.3031 299.508ZM91.7784 262.591C91.7784 251.799 89.0076 241.733 83.4795 232.554L69.7734 240.809C73.7812 247.464 75.7784 254.67 75.7784 262.591H91.7784ZM83.5 232.589C77.9378 223.248 70.0419 215.884 60.0556 210.483L52.4444 224.557C60.0907 228.692 65.7791 234.102 69.7529 240.775L83.5 232.589ZM60.1108 210.513C49.899 204.886 38.0821 202.233 24.9432 202.233V218.233C35.9141 218.233 44.9684 220.438 52.3892 224.527L60.1108 210.513ZM24.9432 202.233H-43.0682V218.233H24.9432V202.233ZM-51.0682 210.233V306.312H-35.0682V210.233H-51.0682ZM-43.0682 189.085H19.0057V173.085H-43.0682V189.085ZM19.0057 189.085C30.1543 189.085 40.464 186.888 49.7779 182.335L42.7505 167.961C35.8712 171.324 28.0086 173.085 19.0057 173.085V189.085ZM49.7466 182.35C59.1542 177.801 66.7612 171.292 72.3652 162.833L59.0268 153.996C55.0949 159.931 49.7473 164.578 42.7818 167.945L49.7466 182.35ZM72.3268 162.891C78.1813 154.217 80.983 144.16 80.983 133.045H64.983C64.983 141.363 62.9266 148.218 59.0652 153.939L72.3268 162.891ZM80.983 133.045C80.983 118.816 75.9378 106.469 65.9552 96.4866L54.6414 107.8C61.5716 114.731 64.983 122.985 64.983 133.045H80.983ZM65.985 96.5166C55.3949 85.8138 39.4685 81.3239 20.0852 81.3239V97.3239C37.4065 97.3239 48.2888 101.38 54.6116 107.77L65.985 96.5166ZM20.0852 81.3239H-43.0682V97.3239H20.0852V81.3239ZM-51.0682 89.3239V181.085H-35.0682V89.3239H-51.0682ZM181.95 336V344H187.599L189.489 338.676L181.95 336ZM146.864 336L139.355 333.243L135.405 344H146.864V336ZM248.342 59.6364V51.6364H242.757L240.832 56.8789L248.342 59.6364ZM282.887 59.6364L290.397 56.8789L288.472 51.6364H282.887V59.6364ZM384.364 336V344H395.824L391.874 333.243L384.364 336ZM349.279 336L341.74 338.676L343.63 344H349.279V336ZM266.694 103.358L274.233 100.682L272.343 95.3579H266.694V103.358ZM264.535 103.358V95.3579H258.886L256.996 100.682L264.535 103.358ZM194.904 228.045V220.045H186.904V228.045H194.904ZM336.325 228.045H344.325V220.045H336.325V228.045ZM336.325 257.733V265.733H344.325V257.733H336.325ZM194.904 257.733H186.904V265.733H194.904V257.733ZM181.95 328H146.864V344H181.95V328ZM154.374 338.757L255.851 62.3938L240.832 56.8789L139.355 333.243L154.374 338.757ZM248.342 67.6364H282.887V51.6364H248.342V67.6364ZM275.377 62.3938L376.855 338.757L391.874 333.243L290.397 56.8789L275.377 62.3938ZM384.364 328H349.279V344H384.364V328ZM356.818 333.324L274.233 100.682L259.155 106.034L341.74 338.676L356.818 333.324ZM266.694 95.3579H264.535V111.358H266.694V95.3579ZM256.996 100.682L174.411 333.324L189.489 338.676L272.074 106.034L256.996 100.682ZM194.904 236.045H336.325V220.045H194.904V236.045ZM328.325 228.045V257.733H344.325V228.045H328.325ZM336.325 249.733H194.904V265.733H336.325V249.733ZM202.904 257.733V228.045H186.904V257.733H202.904ZM454.94 336V344H462.94V336H454.94ZM423.093 336H415.093V344H423.093V336ZM423.093 59.6364V51.6364H415.093V59.6364H423.093ZM454.94 59.6364H462.94V51.6364H454.94V59.6364ZM454.94 161.114H446.94V169.114H454.94V161.114ZM457.638 161.114V169.114H462.793L464.924 164.419L457.638 161.114ZM479.499 135.609L483.85 142.323L483.858 142.318L483.866 142.313L479.499 135.609ZM555.742 134.53L551.974 141.587L551.998 141.599L552.021 141.612L555.742 134.53ZM580.437 160.304L573.292 163.904L573.309 163.937L573.326 163.97L580.437 160.304ZM589.343 336V344H597.343V336H589.343ZM557.496 336H549.496V344H557.496V336ZM544.677 168.266L538.821 173.716L538.849 173.746L538.877 173.776L544.677 168.266ZM481.388 161.249L477.628 154.188L477.612 154.196L477.596 154.205L481.388 161.249ZM461.957 180.545L454.988 176.616L454.972 176.645L454.956 176.673L461.957 180.545ZM446.94 211.312V336H462.94V211.312H446.94ZM454.94 328H423.093V344H454.94V328ZM431.093 336V59.6364H415.093V336H431.093ZM423.093 67.6364H454.94V51.6364H423.093V67.6364ZM446.94 59.6364V161.114H462.94V59.6364H446.94ZM454.94 169.114H457.638V153.114H454.94V169.114ZM464.924 164.419C469.16 155.084 475.439 147.775 483.85 142.323L475.148 128.896C464.128 136.039 455.833 145.732 450.353 157.808L464.924 164.419ZM483.866 142.313C491.957 137.042 503.316 134.028 518.633 134.028V118.028C501.384 118.028 486.653 121.402 475.133 128.906L483.866 142.313ZM518.633 134.028C531.671 134.028 542.704 136.638 551.974 141.587L559.51 127.473C547.549 121.087 533.843 118.028 518.633 118.028V134.028ZM552.021 141.612C561.036 146.348 568.129 153.656 573.292 163.904L587.581 156.704C581.049 143.741 571.68 133.867 559.463 127.448L552.021 141.612ZM573.326 163.97C578.502 174.008 581.343 187.305 581.343 204.295H597.343C597.343 185.661 594.247 169.63 587.547 156.638L573.326 163.97ZM581.343 204.295V336H597.343V204.295H581.343ZM589.343 328H557.496V344H589.343V328ZM565.496 336V206.455H549.496V336H565.496ZM565.496 206.455C565.496 188.629 560.847 173.672 550.477 162.756L538.877 173.776C545.599 180.852 549.496 191.354 549.496 206.455H565.496ZM550.533 162.815C540.251 151.767 526.197 146.636 509.457 146.636V162.636C522.764 162.636 532.19 166.592 538.821 173.716L550.533 162.815ZM509.457 146.636C497.86 146.636 487.188 149.096 477.628 154.188L485.149 168.31C492.142 164.585 500.182 162.636 509.457 162.636V146.636ZM477.596 154.205C468.017 159.363 460.464 166.903 454.988 176.616L468.925 184.475C472.985 177.275 478.387 171.951 485.181 168.292L477.596 154.205ZM454.956 176.673C449.479 186.574 446.94 198.233 446.94 211.312H462.94C462.94 200.282 465.078 191.43 468.957 184.418L454.956 176.673ZM663.258 336V344H668.907L670.797 338.676L663.258 336ZM628.173 336L620.663 333.243L616.713 344H628.173V336ZM729.65 59.6364V51.6364H724.065L722.14 56.8789L729.65 59.6364ZM764.196 59.6364L771.705 56.8789L769.78 51.6364H764.196V59.6364ZM865.673 336V344H877.133L873.183 333.243L865.673 336ZM830.588 336L823.049 338.676L824.939 344H830.588V336ZM748.002 103.358L755.542 100.682L753.652 95.3579H748.002V103.358ZM745.843 103.358V95.3579H740.194L738.304 100.682L745.843 103.358ZM676.213 228.045V220.045H668.213V228.045H676.213ZM817.633 228.045H825.633V220.045H817.633V228.045ZM817.633 257.733V265.733H825.633V257.733H817.633ZM676.213 257.733H668.213V265.733H676.213V257.733ZM663.258 328H628.173V344H663.258V328ZM635.683 338.757L737.16 62.3938L722.14 56.8789L620.663 333.243L635.683 338.757ZM729.65 67.6364H764.196V51.6364H729.65V67.6364ZM756.686 62.3938L858.163 338.757L873.183 333.243L771.705 56.8789L756.686 62.3938ZM865.673 328H830.588V344H865.673V328ZM838.127 333.324L755.542 100.682L740.463 106.034L823.049 338.676L838.127 333.324ZM748.002 95.3579H745.843V111.358H748.002V95.3579ZM738.304 100.682L655.719 333.324L670.797 338.676L753.382 106.034L738.304 100.682ZM676.213 236.045H817.633V220.045H676.213V236.045ZM809.633 228.045V257.733H825.633V228.045H809.633ZM817.633 249.733H676.213V265.733H817.633V249.733ZM684.213 257.733V228.045H668.213V257.733H684.213ZM908.72 336H900.72V344H908.72V336ZM908.72 59.6364V51.6364H900.72V59.6364H908.72ZM1066.6 76.2344L1062.59 83.1541L1062.6 83.1612L1062.61 83.1682L1066.6 76.2344ZM1110.46 123.599L1103.29 127.139L1103.29 127.152L1110.46 123.599ZM1110.32 271.632L1117.49 275.185L1117.5 275.172L1110.32 271.632ZM1065.52 319.402L1069.45 326.369L1069.47 326.363L1069.48 326.356L1065.52 319.402ZM942.186 306.312H934.186V314.312H942.186V306.312ZM1048.66 293.088L1044.61 286.188L1048.66 293.088ZM1082.39 139.658L1075.1 142.941L1075.1 142.948L1075.1 142.956L1082.39 139.658ZM1049.74 102.413L1045.61 109.266L1045.62 109.275L1045.64 109.285L1049.74 102.413ZM942.186 89.3239V81.3239H934.186V89.3239H942.186ZM994.004 328H908.72V344H994.004V328ZM916.72 336V59.6364L900.72 59.6364V336H916.72ZM908.72 67.6364L997.782 67.6364V51.6364L908.72 51.6364V67.6364ZM997.782 67.6364C1023.48 67.6364 1044.97 72.9345 1062.59 83.1541L1070.62 69.3147C1050.09 57.4035 1025.7 51.6364 997.782 51.6364V67.6364ZM1062.61 83.1682C1080.25 93.3168 1093.79 107.894 1103.29 127.139L1117.63 120.059C1106.8 98.1024 1091.1 81.1027 1070.59 69.3005L1062.61 83.1682ZM1103.29 127.152C1112.79 146.318 1117.71 169.602 1117.71 197.278H1133.71C1133.71 167.738 1128.46 141.903 1117.63 120.047L1103.29 127.152ZM1117.71 197.278C1117.71 225.129 1112.75 248.646 1103.15 268.092L1117.5 275.172C1128.41 253.056 1133.71 227.003 1133.71 197.278H1117.71ZM1103.16 268.079C1093.59 287.378 1079.76 302.101 1061.57 312.448L1069.48 326.356C1090.51 314.393 1106.55 297.269 1117.49 275.185L1103.16 268.079ZM1061.59 312.435C1043.44 322.675 1021.03 328 994.004 328V344C1023.11 344 1048.38 338.259 1069.45 326.369L1061.59 312.435ZM942.186 314.312H991.845V298.312H942.186V314.312ZM991.845 314.312C1015.69 314.312 1036.13 309.716 1052.7 299.988L1044.61 286.188C1031.14 294.093 1013.7 298.312 991.845 298.312V314.312ZM1052.7 299.988C1069.19 290.312 1081.5 276.486 1089.54 258.74L1074.97 252.138C1068.26 266.958 1058.17 278.231 1044.61 286.188L1052.7 299.988ZM1089.54 258.74C1097.5 241.189 1101.32 220.623 1101.32 197.278H1085.32C1085.32 218.915 1081.77 237.123 1074.97 252.138L1089.54 258.74ZM1101.32 197.278C1101.32 174.119 1097.54 153.733 1089.68 136.36L1075.1 142.956C1081.82 157.789 1085.32 175.817 1085.32 197.278H1101.32ZM1089.69 136.375C1081.76 118.77 1069.8 105.064 1053.83 95.5421L1045.64 109.285C1058.64 117.035 1068.44 128.159 1075.1 142.941L1089.69 136.375ZM1053.86 95.5609C1037.83 85.9025 1018.27 81.3239 995.623 81.3239V97.3239C1016.16 97.3239 1032.67 101.472 1045.61 109.266L1053.86 95.5609ZM995.623 81.3239H942.186V97.3239H995.623V81.3239ZM934.186 89.3239V306.312H950.186V89.3239H934.186ZM1363.21 59.6364V51.6364H1355.21V59.6364H1363.21ZM1396.67 59.6364H1404.67V51.6364H1396.67V59.6364ZM1383.31 293.223L1376.46 289.107L1376.45 289.113L1376.45 289.119L1383.31 293.223ZM1345.94 328.173L1349.66 335.256L1349.67 335.248L1349.69 335.24L1345.94 328.173ZM1232.58 328.173L1228.83 335.24L1228.85 335.248L1228.86 335.256L1232.58 328.173ZM1195.07 293.223L1188.19 297.308L1188.21 297.333L1188.22 297.357L1195.07 293.223ZM1181.84 59.6364V51.6364H1173.84V59.6364H1181.84ZM1215.31 59.6364H1223.31V51.6364H1215.31V59.6364ZM1224.22 275.95L1217.25 279.881L1217.26 279.894L1217.26 279.906L1224.22 275.95ZM1249.59 300.645L1245.74 307.657L1245.77 307.676L1245.8 307.694L1249.59 300.645ZM1328.93 300.645L1332.72 307.694L1332.74 307.682L1332.76 307.67L1328.93 300.645ZM1354.3 275.95L1347.33 272.02L1347.33 272.03L1347.32 272.04L1354.3 275.95ZM1363.21 67.6364H1396.67V51.6364H1363.21V67.6364ZM1388.67 59.6364V242.619H1404.67V59.6364H1388.67ZM1388.67 242.619C1388.67 260.198 1384.55 275.619 1376.46 289.107L1390.17 297.339C1399.89 281.14 1404.67 262.824 1404.67 242.619H1388.67ZM1376.45 289.119C1368.43 302.543 1357.08 313.202 1342.19 321.107L1349.69 335.24C1367 326.052 1380.57 313.411 1390.18 297.327L1376.45 289.119ZM1342.22 321.091C1327.46 328.839 1309.89 332.858 1289.26 332.858V348.858C1311.99 348.858 1332.2 344.42 1349.66 335.256L1342.22 321.091ZM1289.26 332.858C1268.63 332.858 1251.06 328.839 1236.3 321.091L1228.86 335.256C1246.32 344.42 1266.53 348.858 1289.26 348.858V332.858ZM1236.33 321.107C1221.43 313.198 1210.03 302.53 1201.92 289.089L1188.22 297.357C1197.92 313.424 1211.53 326.055 1228.83 335.24L1236.33 321.107ZM1201.95 289.138C1193.93 275.645 1189.84 260.213 1189.84 242.619H1173.84C1173.84 262.809 1178.57 281.113 1188.19 297.308L1201.95 289.138ZM1189.84 242.619V59.6364H1173.84V242.619H1189.84ZM1181.84 67.6364H1215.31V51.6364H1181.84V67.6364ZM1207.31 59.6364V239.92H1223.31V59.6364H1207.31ZM1207.31 239.92C1207.31 254.628 1210.56 268.021 1217.25 279.881L1231.18 272.02C1226 262.829 1223.31 252.202 1223.31 239.92H1207.31ZM1217.26 279.906C1223.97 291.685 1233.52 300.949 1245.74 307.657L1253.44 293.633C1243.7 288.285 1236.34 281.087 1231.17 271.994L1217.26 279.906ZM1245.8 307.694C1258.27 314.381 1272.85 317.551 1289.26 317.551V301.551C1274.9 301.551 1263.04 298.784 1253.37 293.596L1245.8 307.694ZM1289.26 317.551C1305.67 317.551 1320.25 314.381 1332.72 307.694L1325.15 293.596C1315.48 298.784 1303.62 301.551 1289.26 301.551V317.551ZM1332.76 307.67C1345.07 300.962 1354.66 291.682 1361.28 279.861L1347.32 272.04C1342.25 281.089 1334.92 288.272 1325.11 293.62L1332.76 307.67ZM1361.27 279.881C1367.96 268.021 1371.21 254.628 1371.21 239.92H1355.21C1355.21 252.202 1352.52 262.829 1347.33 272.02L1361.27 279.881ZM1371.21 239.92V59.6364H1355.21V239.92H1371.21ZM1463.5 336H1455.5V344H1463.5V336ZM1463.5 59.6364V51.6364H1455.5V59.6364H1463.5ZM1610.05 70.7017L1606.29 77.7631L1606.31 77.7726L1606.33 77.782L1610.05 70.7017ZM1640.82 100.794L1633.73 104.491L1633.73 104.491L1640.82 100.794ZM1640.82 187.697L1633.75 183.959L1633.75 183.959L1640.82 187.697ZM1610.19 217.385L1613.86 224.493L1613.88 224.484L1613.9 224.474L1610.19 217.385ZM1481.86 228.045H1473.86V236.045H1481.86V228.045ZM1481.86 197.818V189.818H1473.86V197.818H1481.86ZM1591.97 191.341L1588.54 184.115L1588.52 184.122L1588.51 184.129L1591.97 191.341ZM1611.67 172.989L1604.57 169.315L1604.56 169.331L1604.55 169.346L1611.67 172.989ZM1591.84 96.206L1588.23 103.347L1588.26 103.361L1588.29 103.376L1591.84 96.206ZM1496.97 89.3239V81.3239H1488.97V89.3239H1496.97ZM1496.97 336V344H1504.97V336H1496.97ZM1593.59 211.852L1600.61 208.009L1598.33 203.852H1593.59V211.852ZM1661.6 336V344H1675.11L1668.62 332.156L1661.6 336ZM1622.74 336L1615.7 339.796L1617.96 344H1622.74V336ZM1555.81 211.852V203.852H1542.4L1548.76 215.649L1555.81 211.852ZM1471.5 336V59.6364H1455.5V336H1471.5ZM1463.5 67.6364H1556.89V51.6364H1463.5V67.6364ZM1556.89 67.6364C1577.63 67.6364 1593.95 71.1901 1606.29 77.7631L1613.81 63.6403C1598.45 55.4595 1579.32 51.6364 1556.89 51.6364V67.6364ZM1606.33 77.782C1618.87 84.3796 1627.89 93.2871 1633.73 104.491L1647.91 97.0969C1640.44 82.7517 1628.94 71.5976 1613.78 63.6213L1606.33 77.782ZM1633.73 104.491C1639.71 115.983 1642.81 129.215 1642.81 144.381H1658.81C1658.81 126.98 1655.24 111.155 1647.91 97.0969L1633.73 104.491ZM1642.81 144.381C1642.81 159.549 1639.71 172.672 1633.75 183.959L1647.89 191.436C1655.24 177.534 1658.81 161.779 1658.81 144.381H1642.81ZM1633.75 183.959C1627.92 194.992 1618.95 203.778 1606.48 210.296L1613.9 224.474C1628.96 216.598 1640.41 205.592 1647.89 191.436L1633.75 183.959ZM1606.52 210.277C1594.24 216.617 1578.02 220.045 1557.43 220.045V236.045C1579.65 236.045 1598.61 232.367 1613.86 224.493L1606.52 210.277ZM1557.43 220.045H1481.86V236.045H1557.43V220.045ZM1489.86 228.045V197.818H1473.86V228.045H1489.86ZM1481.86 205.818H1556.35V189.818H1481.86V205.818ZM1556.35 205.818C1571.77 205.818 1584.97 203.578 1595.43 198.553L1588.51 184.129C1580.98 187.741 1570.43 189.818 1556.35 189.818V205.818ZM1595.4 198.566C1605.86 193.597 1613.84 186.319 1618.8 176.631L1604.55 169.346C1601.41 175.492 1596.25 180.449 1588.54 184.115L1595.4 198.566ZM1618.78 176.662C1623.62 167.29 1625.88 156.437 1625.88 144.381H1609.88C1609.88 154.455 1608 162.674 1604.57 169.315L1618.78 176.662ZM1625.88 144.381C1625.88 132.314 1623.62 121.375 1618.83 111.79L1604.52 118.946C1608 125.914 1609.88 134.316 1609.88 144.381H1625.88ZM1618.83 111.79C1613.84 101.805 1605.87 94.2291 1595.39 89.0364L1588.29 103.376C1595.97 107.179 1601.23 112.378 1604.52 118.946L1618.83 111.79ZM1595.44 89.0647C1584.84 83.7105 1571.45 81.3239 1555.81 81.3239V97.3239C1570.03 97.3239 1580.66 99.5253 1588.23 103.347L1595.44 89.0647ZM1555.81 81.3239H1496.97V97.3239H1555.81V81.3239ZM1488.97 89.3239V336H1504.97V89.3239H1488.97ZM1496.97 328H1463.5V344H1496.97V328ZM1586.57 215.696L1654.59 339.844L1668.62 332.156L1600.61 208.009L1586.57 215.696ZM1661.6 328H1622.74V344H1661.6V328ZM1629.78 332.204L1562.85 208.056L1548.76 215.649L1615.7 339.796L1629.78 332.204ZM1555.81 219.852H1593.59V203.852H1555.81V219.852Z" fill="#656565" fill-opacity="0.2"/>
<g clip-path="url(#clip1_233_10)">
<g clip-path="url(#clip2_233_10)">
<circle cx="1326.91" cy="271.822" r="2" transform="rotate(41.1142 1326.91 271.822)" fill="#FFCC00"/>
<circle cx="1338.96" cy="282.343" r="2" transform="rotate(41.1142 1338.96 282.343)" fill="#FFCC00"/>
<circle cx="1351.01" cy="292.864" r="2" transform="rotate(41.1142 1351.01 292.864)" fill="#FFCC00"/>
<circle cx="1363.07" cy="303.385" r="2" transform="rotate(41.1142 1363.07 303.385)" fill="#FFCC00"/>
<circle cx="1375.12" cy="313.906" r="2" transform="rotate(41.1142 1375.12 313.906)" fill="#FFCC00"/>
</g>
<g clip-path="url(#clip3_233_10)">
<circle cx="1316.38" cy="283.876" r="2" transform="rotate(41.1142 1316.38 283.876)" fill="#FFCC00"/>
<circle cx="1328.44" cy="294.397" r="2" transform="rotate(41.1142 1328.44 294.397)" fill="#FFCC00"/>
<circle cx="1340.49" cy="304.918" r="2" transform="rotate(41.1142 1340.49 304.918)" fill="#FFCC00"/>
<circle cx="1352.55" cy="315.439" r="2" transform="rotate(41.1142 1352.55 315.439)" fill="#FFCC00"/>
<circle cx="1364.6" cy="325.96" r="2" transform="rotate(41.1142 1364.6 325.96)" fill="#FFCC00"/>
</g>
<g clip-path="url(#clip4_233_10)">
<circle cx="1305.86" cy="295.931" r="2" transform="rotate(41.1142 1305.86 295.931)" fill="#FFCC00"/>
<circle cx="1317.92" cy="306.452" r="2" transform="rotate(41.1142 1317.92 306.452)" fill="#FFCC00"/>
<circle cx="1329.97" cy="316.973" r="2" transform="rotate(41.1142 1329.97 316.973)" fill="#FFCC00"/>
<circle cx="1342.03" cy="327.494" r="2" transform="rotate(41.1142 1342.03 327.494)" fill="#FFCC00"/>
<circle cx="1354.08" cy="338.015" r="2" transform="rotate(41.1142 1354.08 338.015)" fill="#FFCC00"/>
</g>
<g clip-path="url(#clip5_233_10)">
<circle cx="1295.34" cy="307.985" r="2" transform="rotate(41.1142 1295.34 307.985)" fill="#FFCC00"/>
<circle cx="1307.4" cy="318.506" r="2" transform="rotate(41.1142 1307.4 318.506)" fill="#FFCC00"/>
<circle cx="1319.45" cy="329.027" r="2" transform="rotate(41.1142 1319.45 329.027)" fill="#FFCC00"/>
<circle cx="1331.51" cy="339.548" r="2" transform="rotate(41.1142 1331.51 339.548)" fill="#FFCC00"/>
<circle cx="1343.56" cy="350.069" r="2" transform="rotate(41.1142 1343.56 350.069)" fill="#FFCC00"/>
</g>
<g clip-path="url(#clip6_233_10)">
<circle cx="1284.82" cy="320.04" r="2" transform="rotate(41.1142 1284.82 320.04)" fill="#FFCC00"/>
<circle cx="1296.88" cy="330.561" r="2" transform="rotate(41.1142 1296.88 330.561)" fill="#FFCC00"/>
<circle cx="1308.93" cy="341.082" r="2" transform="rotate(41.1142 1308.93 341.082)" fill="#FFCC00"/>
<circle cx="1320.99" cy="351.603" r="2" transform="rotate(41.1142 1320.99 351.603)" fill="#FFCC00"/>
<circle cx="1333.04" cy="362.124" r="2" transform="rotate(41.1142 1333.04 362.124)" fill="#FFCC00"/>
</g>
</g>
<path d="M283.784 303.754C290.855 314.58 299.143 324.844 308.65 334.35C318.156 343.857 328.42 352.145 339.246 359.216L283.784 303.754Z" fill="white" fill-opacity="0.34"/>
<path d="M360.61 371.265L271.735 282.39C269.047 276.803 266.649 271.111 264.539 265.338L377.662 378.461C371.889 376.351 366.197 373.953 360.61 371.265Z" fill="white" fill-opacity="0.34"/>
<path d="M391.416 382.899C395.726 384.11 400.071 385.167 404.441 386.068L256.932 238.559C257.833 242.929 258.89 247.274 260.101 251.584L391.416 382.899Z" fill="white" fill-opacity="0.34"/>
<path d="M254.955 227.267L415.733 388.045C419.432 388.578 423.143 389.002 426.862 389.318L253.682 216.138C253.998 219.857 254.422 223.568 254.955 227.267Z" fill="white" fill-opacity="0.34"/>
<path d="M253.102 206.242L436.758 389.898C440.064 390.006 443.373 390.028 446.68 389.965L253.035 196.32C252.972 199.627 252.994 202.936 253.102 206.242Z" fill="white" fill-opacity="0.34"/>
<path d="M253.417 187.385L455.615 389.583C458.633 389.384 461.648 389.112 464.656 388.769L254.231 178.344C253.888 181.352 253.616 184.367 253.417 187.385Z" fill="white" fill-opacity="0.34"/>
<path d="M255.347 170.144L472.856 387.653C475.646 387.212 478.428 386.708 481.2 386.142L256.858 161.8C256.292 164.572 255.788 167.354 255.347 170.144Z" fill="white" fill-opacity="0.34"/>
<path d="M258.574 154.199L488.801 384.426C491.399 383.784 493.987 383.085 496.561 382.332L260.668 146.439C259.915 149.013 259.216 151.601 258.574 154.199Z" fill="white" fill-opacity="0.34"/>
<path d="M262.896 139.35L503.65 380.104C506.082 379.287 508.5 378.42 510.904 377.502L265.498 132.096C264.58 134.5 263.713 136.918 262.896 139.35Z" fill="white" fill-opacity="0.34"/>
<path d="M268.177 125.46L517.54 374.823C519.822 373.851 522.089 372.832 524.339 371.766L271.234 118.661C270.168 120.911 269.149 123.178 268.177 125.46Z" fill="white" fill-opacity="0.34"/>
<path d="M274.324 112.435L530.565 368.676C532.71 367.562 534.838 366.405 536.947 365.203L277.797 106.053C276.595 108.162 275.438 110.29 274.324 112.435Z" fill="white" fill-opacity="0.34"/>
<path d="M281.267 100.207L542.793 361.733C544.81 360.487 546.808 359.199 548.786 357.87L285.13 94.214C283.801 96.1925 282.513 98.1905 281.267 100.207Z" fill="white" fill-opacity="0.34"/>
<path d="M288.958 88.7265L554.274 354.042C556.168 352.67 558.042 351.259 559.896 349.809L293.191 83.1039C291.741 84.9578 290.33 86.8323 288.958 88.7265Z" fill="white" fill-opacity="0.34"/>
<path d="M297.362 77.9592L565.041 345.638C566.817 344.146 568.573 342.616 570.307 341.048L301.952 72.6931C300.384 74.4269 298.854 76.1826 297.362 77.9592Z" fill="white" fill-opacity="0.34"/>
<path d="M306.455 67.8804L575.12 336.545C575.868 335.821 576.611 335.089 577.35 334.35C578.257 333.443 579.153 332.529 580.038 331.608L311.392 62.9616C310.471 63.8465 309.557 64.7426 308.65 65.6497C307.911 66.3887 307.179 67.1323 306.455 67.8804Z" fill="white" fill-opacity="0.34"/>
<path d="M316.221 58.4757L584.524 326.779C586.086 325.039 587.609 323.277 589.095 321.494L321.506 53.9046C319.723 55.3906 317.961 56.9143 316.221 58.4757Z" fill="white" fill-opacity="0.34"/>
<path d="M326.668 49.7512L593.249 316.332C594.693 314.471 596.098 312.59 597.463 310.69L332.31 45.5371C330.409 46.9025 328.529 48.3072 326.668 49.7512Z" fill="white" fill-opacity="0.34"/>
<path d="M337.816 41.7272L601.273 305.184C602.595 303.199 603.876 301.194 605.116 299.171L343.828 37.884C341.806 39.1238 339.801 40.4048 337.816 41.7272Z" fill="white" fill-opacity="0.34"/>
<path d="M349.694 34.4335L608.567 293.306C609.761 291.189 610.912 289.054 612.019 286.903L356.097 30.9813C353.945 32.0882 351.811 33.2389 349.694 34.4335Z" fill="white" fill-opacity="0.34"/>
<path d="M362.344 27.9121L615.088 280.656C616.146 278.398 617.157 276.124 618.122 273.834L369.166 24.8784C366.876 25.8428 364.602 26.854 362.344 27.9121Z" fill="white" fill-opacity="0.34"/>
<path d="M375.824 22.2215L620.779 267.176C621.688 264.764 622.547 262.337 623.355 259.897L383.103 19.6445C380.663 20.4527 378.236 21.3117 375.824 22.2215Z" fill="white" fill-opacity="0.34"/>
<path d="M390.217 17.4424L625.558 252.783C626.302 250.199 626.991 247.602 627.624 244.994L398.006 15.376C395.398 16.0089 392.801 16.6977 390.217 17.4424Z" fill="white" fill-opacity="0.34"/>
<path d="M405.636 13.6896L629.31 237.364C629.866 234.581 630.359 231.788 630.789 228.987L414.013 12.2113C411.212 12.6413 408.419 13.1341 405.636 13.6896Z" fill="white" fill-opacity="0.34"/>
<path d="M422.247 11.1299L631.87 220.753C632.2 217.731 632.458 214.702 632.643 211.67L431.33 10.3565C428.298 10.542 425.269 10.7998 422.247 11.1299Z" fill="white" fill-opacity="0.34"/>
<path d="M440.308 10.019L632.981 202.692C633.028 199.367 632.988 196.04 632.861 192.717L450.283 10.1388C446.96 10.0121 443.633 9.97212 440.308 10.019Z" fill="white" fill-opacity="0.34"/>
<path d="M460.239 10.7789L632.221 182.761C631.882 179.016 631.432 175.279 630.871 171.555L471.445 12.1288C467.721 11.568 463.984 11.1181 460.239 10.7789Z" fill="white" fill-opacity="0.34"/>
<path d="M482.83 14.1988L628.801 160.17C627.859 155.753 626.758 151.364 625.498 147.01L495.99 17.502C491.636 16.2423 487.247 15.1412 482.83 14.1988Z" fill="white" fill-opacity="0.34"/>
<path d="M509.934 22.1304L620.87 133.066C618.652 127.164 616.131 121.349 613.306 115.647L527.353 29.6937C521.651 26.8687 515.836 24.3476 509.934 22.1304Z" fill="white" fill-opacity="0.34"/>
<path d="M549.77 42.7949L600.205 93.2303C593.588 83.511 585.97 74.2693 577.35 65.6497C568.731 57.0301 559.489 49.4119 549.77 42.7949Z" fill="white" fill-opacity="0.34"/>
<path d="M1296 349C1296 442.336 1220.34 518 1127 518C1033.66 518 958 442.336 958 349C958 255.664 1033.66 180 1127 180C1220.34 180 1296 255.664 1296 349Z" stroke="#6600CC" stroke-width="62"/>
<path d="M526.4 234V164H557C564.6 164 571.267 165.467 577 168.4C582.733 171.333 587.2 175.4 590.4 180.6C593.6 185.8 595.2 191.933 595.2 199C595.2 206 593.6 212.133 590.4 217.4C587.2 222.6 582.733 226.667 577 229.6C571.267 232.533 564.6 234 557 234H526.4ZM539.4 223H556.4C561.667 223 566.2 222 570 220C573.867 218 576.833 215.2 578.9 211.6C581.033 208 582.1 203.8 582.1 199C582.1 194.133 581.033 189.933 578.9 186.4C576.833 182.8 573.867 180 570 178C566.2 176 561.667 175 556.4 175H539.4V223ZM613.141 234L644.641 164H657.441L689.041 234H675.441L648.341 170.9H653.541L626.541 234H613.141ZM627.641 217.8L631.141 207.6H668.941L672.441 217.8H627.641ZM712.943 234V164H741.743C747.943 164 753.243 165 757.643 167C762.11 169 765.543 171.867 767.943 175.6C770.343 179.333 771.543 183.767 771.543 188.9C771.543 194.033 770.343 198.467 767.943 202.2C765.543 205.867 762.11 208.7 757.643 210.7C753.243 212.633 747.943 213.6 741.743 213.6H720.143L725.943 207.7V234H712.943ZM758.743 234L741.043 208.6H754.943L772.743 234H758.743ZM725.943 209.1L720.143 202.9H741.143C746.876 202.9 751.176 201.667 754.043 199.2C756.976 196.733 758.443 193.3 758.443 188.9C758.443 184.433 756.976 181 754.043 178.6C751.176 176.2 746.876 175 741.143 175H720.143L725.943 168.6V209.1ZM801.088 234V164H829.888C836.088 164 841.388 165 845.788 167C850.254 169 853.688 171.867 856.088 175.6C858.488 179.333 859.688 183.767 859.688 188.9C859.688 194.033 858.488 198.467 856.088 202.2C853.688 205.933 850.254 208.8 845.788 210.8C841.388 212.8 836.088 213.8 829.888 213.8H808.288L814.088 207.7V234H801.088ZM814.088 209.1L808.288 202.8H829.288C835.021 202.8 839.321 201.6 842.187 199.2C845.121 196.733 846.588 193.3 846.588 188.9C846.588 184.433 845.121 181 842.187 178.6C839.321 176.2 835.021 175 829.288 175H808.288L814.088 168.6V209.1ZM874.254 234L905.754 164H918.554L950.154 234H936.554L909.454 170.9H914.654L887.654 234H874.254ZM888.754 217.8L892.254 207.6H930.054L933.554 217.8H888.754ZM974.056 234V164H984.756L1028.66 217.9H1023.36V164H1036.26V234H1025.56L981.656 180.1H986.956V234H974.056Z" fill="#FFCC00"/>
<path d="M638 207.5H664L668.5 218H633.334L638 207.5Z" fill="#333333"/>
<path d="M899.166 207.5H925.166L929.666 218H894.5L899.166 207.5Z" fill="#272727"/>
<path d="M908.715 218V207.5H925.191L929.688 218H908.715Z" fill="#272727"/>
<ellipse cx="1577.21" cy="-1.10639" rx="3.10183" ry="3.099" transform="rotate(21.0645 1577.21 -1.10639)" fill="white"/>
<ellipse cx="1546.31" cy="-3.71198" rx="3.10183" ry="3.099" transform="rotate(21.0645 1546.31 -3.71198)" fill="white"/>
<ellipse cx="1555.57" cy="-0.144356" rx="3.10183" ry="3.099" transform="rotate(21.0645 1555.57 -0.144356)" fill="white"/>
<ellipse cx="1564.83" cy="3.42315" rx="3.10183" ry="3.099" transform="rotate(21.0645 1564.83 3.42315)" fill="white"/>
<ellipse cx="1574.09" cy="6.99065" rx="3.10183" ry="3.099" transform="rotate(21.0645 1574.09 6.99065)" fill="white"/>
<ellipse cx="1585.9" cy="2.23821" rx="3.10183" ry="3.099" transform="rotate(21.0645 1585.9 2.23821)" fill="white"/>
<ellipse cx="1582.78" cy="10.3354" rx="3.10183" ry="3.099" transform="rotate(21.0645 1582.78 10.3354)" fill="white"/>
<ellipse cx="1524.66" cy="-2.7497" rx="3.10183" ry="3.099" transform="rotate(21.0645 1524.66 -2.7497)" fill="white"/>
<ellipse cx="1533.92" cy="0.817802" rx="3.10183" ry="3.099" transform="rotate(21.0645 1533.92 0.817802)" fill="white"/>
<ellipse cx="1543.19" cy="4.38531" rx="3.10183" ry="3.099" transform="rotate(21.0645 1543.19 4.38531)" fill="white"/>
<ellipse cx="1552.45" cy="7.95293" rx="3.10183" ry="3.099" transform="rotate(21.0645 1552.45 7.95293)" fill="white"/>
<ellipse cx="1561.71" cy="11.5204" rx="3.10183" ry="3.099" transform="rotate(21.0645 1561.71 11.5204)" fill="white"/>
<ellipse cx="1570.97" cy="15.0879" rx="3.10183" ry="3.099" transform="rotate(21.0645 1570.97 15.0879)" fill="white"/>
<ellipse cx="1503.02" cy="-1.7873" rx="3.10183" ry="3.099" transform="rotate(21.0645 1503.02 -1.7873)" fill="white"/>
<ellipse cx="1512.28" cy="1.7802" rx="3.10183" ry="3.099" transform="rotate(21.0645 1512.28 1.7802)" fill="white"/>
<ellipse cx="1521.54" cy="5.34783" rx="3.10183" ry="3.099" transform="rotate(21.0645 1521.54 5.34783)" fill="white"/>
<ellipse cx="1530.81" cy="8.91534" rx="3.10183" ry="3.099" transform="rotate(21.0645 1530.81 8.91534)" fill="white"/>
<ellipse cx="1540.07" cy="12.4828" rx="3.10183" ry="3.099" transform="rotate(21.0645 1540.07 12.4828)" fill="white"/>
<ellipse cx="1549.33" cy="16.0505" rx="3.10183" ry="3.099" transform="rotate(21.0645 1549.33 16.0505)" fill="white"/>
<ellipse cx="1558.59" cy="19.618" rx="3.10183" ry="3.099" transform="rotate(21.0645 1558.59 19.618)" fill="white"/>
<ellipse cx="1567.86" cy="23.1855" rx="3.10183" ry="3.099" transform="rotate(21.0645 1567.86 23.1855)" fill="white"/>
<ellipse cx="1481.37" cy="-0.825021" rx="3.10183" ry="3.099" transform="rotate(21.0645 1481.37 -0.825021)" fill="white"/>
<ellipse cx="1490.64" cy="2.74261" rx="3.10183" ry="3.099" transform="rotate(21.0645 1490.64 2.74261)" fill="white"/>
<ellipse cx="1499.9" cy="6.31011" rx="3.10183" ry="3.099" transform="rotate(21.0645 1499.9 6.31011)" fill="white"/>
<ellipse cx="1509.16" cy="9.87762" rx="3.10183" ry="3.099" transform="rotate(21.0645 1509.16 9.87762)" fill="white"/>
<ellipse cx="1518.42" cy="13.4452" rx="3.10183" ry="3.099" transform="rotate(21.0645 1518.42 13.4452)" fill="white"/>
<ellipse cx="1527.69" cy="17.0127" rx="3.10183" ry="3.099" transform="rotate(21.0645 1527.69 17.0127)" fill="white"/>
<ellipse cx="1536.95" cy="20.5803" rx="3.10183" ry="3.099" transform="rotate(21.0645 1536.95 20.5803)" fill="white"/>
<ellipse cx="1546.21" cy="24.1479" rx="3.10183" ry="3.099" transform="rotate(21.0645 1546.21 24.1479)" fill="white"/>
<ellipse cx="1555.47" cy="27.7154" rx="3.10183" ry="3.099" transform="rotate(21.0645 1555.47 27.7154)" fill="white"/>
<ellipse cx="1564.74" cy="31.2829" rx="3.10183" ry="3.099" transform="rotate(21.0645 1564.74 31.2829)" fill="white"/>
<ellipse cx="1478.25" cy="7.27215" rx="3.10183" ry="3.099" transform="rotate(21.0645 1478.25 7.27215)" fill="white"/>
<ellipse cx="1487.52" cy="10.8398" rx="3.10183" ry="3.099" transform="rotate(21.0645 1487.52 10.8398)" fill="white"/>
<ellipse cx="1496.78" cy="14.4073" rx="3.10183" ry="3.099" transform="rotate(21.0645 1496.78 14.4073)" fill="white"/>
<ellipse cx="1506.04" cy="17.9748" rx="3.10183" ry="3.099" transform="rotate(21.0645 1506.04 17.9748)" fill="white"/>
<ellipse cx="1515.3" cy="21.5423" rx="3.10183" ry="3.099" transform="rotate(21.0645 1515.3 21.5423)" fill="white"/>
<ellipse cx="1524.57" cy="25.1099" rx="3.10183" ry="3.099" transform="rotate(21.0645 1524.57 25.1099)" fill="white"/>
<ellipse cx="1533.83" cy="28.6774" rx="3.10183" ry="3.099" transform="rotate(21.0645 1533.83 28.6774)" fill="white"/>
<ellipse cx="1543.09" cy="32.2449" rx="3.10183" ry="3.099" transform="rotate(21.0645 1543.09 32.2449)" fill="white"/>
<ellipse cx="1552.36" cy="35.8126" rx="3.10183" ry="3.099" transform="rotate(21.0645 1552.36 35.8126)" fill="white"/>
<ellipse cx="1561.62" cy="39.3801" rx="3.10183" ry="3.099" transform="rotate(21.0645 1561.62 39.3801)" fill="white"/>
<ellipse cx="1475.14" cy="15.3694" rx="3.10183" ry="3.099" transform="rotate(21.0645 1475.14 15.3694)" fill="white"/>
<ellipse cx="1484.4" cy="18.9369" rx="3.10183" ry="3.099" transform="rotate(21.0645 1484.4 18.9369)" fill="white"/>
<ellipse cx="1493.66" cy="22.5046" rx="3.10183" ry="3.099" transform="rotate(21.0645 1493.66 22.5046)" fill="white"/>
<ellipse cx="1502.92" cy="26.0721" rx="3.10183" ry="3.099" transform="rotate(21.0645 1502.92 26.0721)" fill="white"/>
<ellipse cx="1512.19" cy="29.6396" rx="3.10183" ry="3.099" transform="rotate(21.0645 1512.19 29.6396)" fill="white"/>
<ellipse cx="1521.45" cy="33.2072" rx="3.10183" ry="3.099" transform="rotate(21.0645 1521.45 33.2072)" fill="white"/>
<ellipse cx="1530.71" cy="36.7747" rx="3.10183" ry="3.099" transform="rotate(21.0645 1530.71 36.7747)" fill="white"/>
<ellipse cx="1539.97" cy="40.3422" rx="3.10183" ry="3.099" transform="rotate(21.0645 1539.97 40.3422)" fill="white"/>
<ellipse cx="1549.24" cy="43.9098" rx="3.10183" ry="3.099" transform="rotate(21.0645 1549.24 43.9098)" fill="white"/>
<ellipse cx="1558.5" cy="47.4773" rx="3.10183" ry="3.099" transform="rotate(21.0645 1558.5 47.4773)" fill="white"/>
<ellipse cx="1472.02" cy="23.4671" rx="3.10183" ry="3.099" transform="rotate(21.0645 1472.02 23.4671)" fill="white"/>
<ellipse cx="1481.28" cy="27.0346" rx="3.10183" ry="3.099" transform="rotate(21.0645 1481.28 27.0346)" fill="white"/>
<ellipse cx="1490.54" cy="30.6022" rx="3.10183" ry="3.099" transform="rotate(21.0645 1490.54 30.6022)" fill="white"/>
<ellipse cx="1499.81" cy="34.1697" rx="3.10183" ry="3.099" transform="rotate(21.0645 1499.81 34.1697)" fill="white"/>
<ellipse cx="1509.07" cy="37.7372" rx="3.10183" ry="3.099" transform="rotate(21.0645 1509.07 37.7372)" fill="white"/>
<ellipse cx="1518.33" cy="41.3049" rx="3.10183" ry="3.099" transform="rotate(21.0645 1518.33 41.3049)" fill="white"/>
<ellipse cx="1527.59" cy="44.8724" rx="3.10183" ry="3.099" transform="rotate(21.0645 1527.59 44.8724)" fill="white"/>
<ellipse cx="1536.86" cy="48.4399" rx="3.10183" ry="3.099" transform="rotate(21.0645 1536.86 48.4399)" fill="white"/>
<ellipse cx="1546.12" cy="52.0075" rx="3.10183" ry="3.099" transform="rotate(21.0645 1546.12 52.0075)" fill="white"/>
<ellipse cx="1555.38" cy="55.575" rx="3.10183" ry="3.099" transform="rotate(21.0645 1555.38 55.575)" fill="white"/>
<ellipse cx="1468.9" cy="31.5643" rx="3.10183" ry="3.099" transform="rotate(21.0645 1468.9 31.5643)" fill="white"/>
<ellipse cx="1478.16" cy="35.1318" rx="3.10183" ry="3.099" transform="rotate(21.0645 1478.16 35.1318)" fill="white"/>
<ellipse cx="1487.42" cy="38.6993" rx="3.10183" ry="3.099" transform="rotate(21.0645 1487.42 38.6993)" fill="white"/>
<ellipse cx="1496.69" cy="42.2669" rx="3.10183" ry="3.099" transform="rotate(21.0645 1496.69 42.2669)" fill="white"/>
<ellipse cx="1505.95" cy="45.8344" rx="3.10183" ry="3.099" transform="rotate(21.0645 1505.95 45.8344)" fill="white"/>
<ellipse cx="1515.21" cy="49.4019" rx="3.10183" ry="3.099" transform="rotate(21.0645 1515.21 49.4019)" fill="white"/>
<ellipse cx="1524.47" cy="52.9695" rx="3.10183" ry="3.099" transform="rotate(21.0645 1524.47 52.9695)" fill="white"/>
<ellipse cx="1533.74" cy="56.537" rx="3.10183" ry="3.099" transform="rotate(21.0645 1533.74 56.537)" fill="white"/>
<ellipse cx="1543" cy="60.1045" rx="3.10183" ry="3.099" transform="rotate(21.0645 1543 60.1045)" fill="white"/>
<ellipse cx="1552.26" cy="63.6722" rx="3.10183" ry="3.099" transform="rotate(21.0645 1552.26 63.6722)" fill="white"/>
<ellipse cx="1465.78" cy="39.6617" rx="3.10183" ry="3.099" transform="rotate(21.0645 1465.78 39.6617)" fill="white"/>
<ellipse cx="1475.04" cy="43.2292" rx="3.10183" ry="3.099" transform="rotate(21.0645 1475.04 43.2292)" fill="white"/>
<ellipse cx="1484.3" cy="46.7967" rx="3.10183" ry="3.099" transform="rotate(21.0645 1484.3 46.7967)" fill="white"/>
<ellipse cx="1493.57" cy="50.3643" rx="3.10183" ry="3.099" transform="rotate(21.0645 1493.57 50.3643)" fill="white"/>
<ellipse cx="1502.83" cy="53.9318" rx="3.10183" ry="3.099" transform="rotate(21.0645 1502.83 53.9318)" fill="white"/>
<ellipse cx="1512.09" cy="57.4993" rx="3.10183" ry="3.099" transform="rotate(21.0645 1512.09 57.4993)" fill="white"/>
<ellipse cx="1521.36" cy="61.0669" rx="3.10183" ry="3.099" transform="rotate(21.0645 1521.36 61.0669)" fill="white"/>
<ellipse cx="1530.62" cy="64.6345" rx="3.10183" ry="3.099" transform="rotate(21.0645 1530.62 64.6345)" fill="white"/>
<ellipse cx="1539.88" cy="68.202" rx="3.10183" ry="3.099" transform="rotate(21.0645 1539.88 68.202)" fill="white"/>
<ellipse cx="1549.14" cy="71.7696" rx="3.10183" ry="3.099" transform="rotate(21.0645 1549.14 71.7696)" fill="white"/>
<ellipse cx="1462.66" cy="47.7591" rx="3.10183" ry="3.099" transform="rotate(21.0645 1462.66 47.7591)" fill="white"/>
<ellipse cx="1471.92" cy="51.3266" rx="3.10183" ry="3.099" transform="rotate(21.0645 1471.92 51.3266)" fill="white"/>
<ellipse cx="1481.19" cy="54.8941" rx="3.10183" ry="3.099" transform="rotate(21.0645 1481.19 54.8941)" fill="white"/>
<ellipse cx="1490.45" cy="58.4617" rx="3.10183" ry="3.099" transform="rotate(21.0645 1490.45 58.4617)" fill="white"/>
<ellipse cx="1499.71" cy="62.0292" rx="3.10183" ry="3.099" transform="rotate(21.0645 1499.71 62.0292)" fill="white"/>
<ellipse cx="1508.97" cy="65.5967" rx="3.10183" ry="3.099" transform="rotate(21.0645 1508.97 65.5967)" fill="white"/>
<ellipse cx="1518.24" cy="69.1644" rx="3.10183" ry="3.099" transform="rotate(21.0645 1518.24 69.1644)" fill="white"/>
<ellipse cx="1527.5" cy="72.7319" rx="3.10183" ry="3.099" transform="rotate(21.0645 1527.5 72.7319)" fill="white"/>
<ellipse cx="1536.76" cy="76.2994" rx="3.10183" ry="3.099" transform="rotate(21.0645 1536.76 76.2994)" fill="white"/>
<ellipse cx="1546.02" cy="79.867" rx="3.10183" ry="3.099" transform="rotate(21.0645 1546.02 79.867)" fill="white"/>
<ellipse cx="1459.54" cy="55.8563" rx="3.10183" ry="3.099" transform="rotate(21.0645 1459.54 55.8563)" fill="white"/>
<ellipse cx="1468.81" cy="59.4239" rx="3.10183" ry="3.099" transform="rotate(21.0645 1468.81 59.4239)" fill="white"/>
<ellipse cx="1478.07" cy="62.9914" rx="3.10183" ry="3.099" transform="rotate(21.0645 1478.07 62.9914)" fill="white"/>
<ellipse cx="1487.33" cy="66.5589" rx="3.10183" ry="3.099" transform="rotate(21.0645 1487.33 66.5589)" fill="white"/>
<ellipse cx="1496.59" cy="70.1265" rx="3.10183" ry="3.099" transform="rotate(21.0645 1496.59 70.1265)" fill="white"/>
<ellipse cx="1505.86" cy="73.694" rx="3.10183" ry="3.099" transform="rotate(21.0645 1505.86 73.694)" fill="white"/>
<ellipse cx="1515.12" cy="77.2615" rx="3.10183" ry="3.099" transform="rotate(21.0645 1515.12 77.2615)" fill="white"/>
<ellipse cx="1524.38" cy="80.8292" rx="3.10183" ry="3.099" transform="rotate(21.0645 1524.38 80.8292)" fill="white"/>
<ellipse cx="1533.64" cy="84.3967" rx="3.10183" ry="3.099" transform="rotate(21.0645 1533.64 84.3967)" fill="white"/>
<ellipse cx="1542.91" cy="87.9642" rx="3.10183" ry="3.099" transform="rotate(21.0645 1542.91 87.9642)" fill="white"/>
<ellipse cx="1579.66" cy="18.4328" rx="3.10183" ry="3.099" transform="rotate(21.0645 1579.66 18.4328)" fill="white"/>
<ellipse cx="1576.54" cy="26.5303" rx="3.10183" ry="3.099" transform="rotate(21.0645 1576.54 26.5303)" fill="white"/>
<ellipse cx="1585.8" cy="30.0978" rx="3.10183" ry="3.099" transform="rotate(21.0645 1585.8 30.0978)" fill="white"/>
<ellipse cx="1573.42" cy="34.6276" rx="3.10183" ry="3.099" transform="rotate(21.0645 1573.42 34.6276)" fill="white"/>
<ellipse cx="1582.68" cy="38.1951" rx="3.10183" ry="3.099" transform="rotate(21.0645 1582.68 38.1951)" fill="white"/>
<ellipse cx="1570.3" cy="42.7248" rx="3.10183" ry="3.099" transform="rotate(21.0645 1570.3 42.7248)" fill="white"/>
<ellipse cx="1579.56" cy="46.2923" rx="3.10183" ry="3.099" transform="rotate(21.0645 1579.56 46.2923)" fill="white"/>
<ellipse cx="1567.18" cy="50.8222" rx="3.10183" ry="3.099" transform="rotate(21.0645 1567.18 50.8222)" fill="white"/>
<ellipse cx="1576.45" cy="54.3898" rx="3.10183" ry="3.099" transform="rotate(21.0645 1576.45 54.3898)" fill="white"/>
<ellipse cx="1585.71" cy="57.9573" rx="3.10183" ry="3.099" transform="rotate(21.0645 1585.71 57.9573)" fill="white"/>
<ellipse cx="1564.06" cy="58.9197" rx="3.10183" ry="3.099" transform="rotate(21.0645 1564.06 58.9197)" fill="white"/>
<ellipse cx="1573.33" cy="62.4872" rx="3.10183" ry="3.099" transform="rotate(21.0645 1573.33 62.4872)" fill="white"/>
<ellipse cx="1582.59" cy="66.0547" rx="3.10183" ry="3.099" transform="rotate(21.0645 1582.59 66.0547)" fill="white"/>
<ellipse cx="1560.95" cy="67.0169" rx="3.10183" ry="3.099" transform="rotate(21.0645 1560.95 67.0169)" fill="white"/>
<ellipse cx="1570.21" cy="70.5845" rx="3.10183" ry="3.099" transform="rotate(21.0645 1570.21 70.5845)" fill="white"/>
<ellipse cx="1579.47" cy="74.152" rx="3.10183" ry="3.099" transform="rotate(21.0645 1579.47 74.152)" fill="white"/>
<ellipse cx="1557.83" cy="75.1144" rx="3.10183" ry="3.099" transform="rotate(21.0645 1557.83 75.1144)" fill="white"/>
<ellipse cx="1567.09" cy="78.6819" rx="3.10183" ry="3.099" transform="rotate(21.0645 1567.09 78.6819)" fill="white"/>
<ellipse cx="1576.35" cy="82.2496" rx="3.10183" ry="3.099" transform="rotate(21.0645 1576.35 82.2496)" fill="white"/>
<ellipse cx="1585.61" cy="85.8171" rx="3.10183" ry="3.099" transform="rotate(21.0645 1585.61 85.8171)" fill="white"/>
<ellipse cx="1554.71" cy="83.2117" rx="3.10183" ry="3.099" transform="rotate(21.0645 1554.71 83.2117)" fill="white"/>
<ellipse cx="1563.97" cy="86.7794" rx="3.10183" ry="3.099" transform="rotate(21.0645 1563.97 86.7794)" fill="white"/>
<ellipse cx="1573.23" cy="90.3469" rx="3.10183" ry="3.099" transform="rotate(21.0645 1573.23 90.3469)" fill="white"/>
<ellipse cx="1582.5" cy="93.9144" rx="3.10183" ry="3.099" transform="rotate(21.0645 1582.5 93.9144)" fill="white"/>
<ellipse cx="1551.59" cy="91.309" rx="3.10183" ry="3.099" transform="rotate(21.0645 1551.59 91.309)" fill="white"/>
<ellipse cx="1560.85" cy="94.8765" rx="3.10183" ry="3.099" transform="rotate(21.0645 1560.85 94.8765)" fill="white"/>
<ellipse cx="1570.11" cy="98.444" rx="3.10183" ry="3.099" transform="rotate(21.0645 1570.11 98.444)" fill="white"/>
<ellipse cx="1579.38" cy="102.012" rx="3.10183" ry="3.099" transform="rotate(21.0645 1579.38 102.012)" fill="white"/>
<path d="M973 234.5V221.5L987 206.5V234.5H973Z" fill="#6600CC"/>
<path d="M722.354 383.14C721.589 383.14 720.856 383.033 720.156 382.818C719.456 382.594 718.901 382.309 718.49 381.964L719.12 380.55C719.512 380.858 719.997 381.115 720.576 381.32C721.155 381.525 721.747 381.628 722.354 381.628C722.867 381.628 723.283 381.572 723.6 381.46C723.917 381.348 724.151 381.199 724.3 381.012C724.449 380.816 724.524 380.597 724.524 380.354C724.524 380.055 724.417 379.817 724.202 379.64C723.987 379.453 723.707 379.309 723.362 379.206C723.026 379.094 722.648 378.991 722.228 378.898C721.817 378.805 721.402 378.697 720.982 378.576C720.571 378.445 720.193 378.282 719.848 378.086C719.512 377.881 719.237 377.61 719.022 377.274C718.807 376.938 718.7 376.509 718.7 375.986C718.7 375.454 718.84 374.969 719.12 374.53C719.409 374.082 719.843 373.727 720.422 373.466C721.01 373.195 721.752 373.06 722.648 373.06C723.236 373.06 723.819 373.135 724.398 373.284C724.977 373.433 725.481 373.648 725.91 373.928L725.336 375.342C724.897 375.081 724.445 374.889 723.978 374.768C723.511 374.637 723.063 374.572 722.634 374.572C722.13 374.572 721.719 374.633 721.402 374.754C721.094 374.875 720.865 375.034 720.716 375.23C720.576 375.426 720.506 375.65 720.506 375.902C720.506 376.201 720.609 376.443 720.814 376.63C721.029 376.807 721.304 376.947 721.64 377.05C721.985 377.153 722.368 377.255 722.788 377.358C723.208 377.451 723.623 377.559 724.034 377.68C724.454 377.801 724.832 377.96 725.168 378.156C725.513 378.352 725.789 378.618 725.994 378.954C726.209 379.29 726.316 379.715 726.316 380.228C726.316 380.751 726.171 381.236 725.882 381.684C725.602 382.123 725.168 382.477 724.58 382.748C723.992 383.009 723.25 383.14 722.354 383.14ZM734.757 383.14C734.01 383.14 733.315 383.019 732.671 382.776C732.036 382.524 731.481 382.174 731.005 381.726C730.538 381.269 730.174 380.732 729.913 380.116C729.651 379.5 729.521 378.828 729.521 378.1C729.521 377.372 729.651 376.7 729.913 376.084C730.174 375.468 730.543 374.936 731.019 374.488C731.495 374.031 732.05 373.681 732.685 373.438C733.319 373.186 734.015 373.06 734.771 373.06C735.573 373.06 736.306 373.2 736.969 373.48C737.631 373.751 738.191 374.157 738.649 374.698L737.473 375.804C737.118 375.421 736.721 375.137 736.283 374.95C735.844 374.754 735.368 374.656 734.855 374.656C734.341 374.656 733.87 374.74 733.441 374.908C733.021 375.076 732.652 375.314 732.335 375.622C732.027 375.93 731.784 376.294 731.607 376.714C731.439 377.134 731.355 377.596 731.355 378.1C731.355 378.604 731.439 379.066 731.607 379.486C731.784 379.906 732.027 380.27 732.335 380.578C732.652 380.886 733.021 381.124 733.441 381.292C733.87 381.46 734.341 381.544 734.855 381.544C735.368 381.544 735.844 381.451 736.283 381.264C736.721 381.068 737.118 380.774 737.473 380.382L738.649 381.502C738.191 382.034 737.631 382.44 736.969 382.72C736.306 383 735.569 383.14 734.757 383.14ZM742.493 383V373.2H746.525C747.393 373.2 748.135 373.34 748.751 373.62C749.376 373.9 749.857 374.301 750.193 374.824C750.529 375.347 750.697 375.967 750.697 376.686C750.697 377.405 750.529 378.025 750.193 378.548C749.857 379.061 749.376 379.458 748.751 379.738C748.135 380.009 747.393 380.144 746.525 380.144H743.501L744.313 379.318V383H742.493ZM748.905 383L746.427 379.444H748.373L750.865 383H748.905ZM744.313 379.514L743.501 378.646H746.441C747.243 378.646 747.845 378.473 748.247 378.128C748.657 377.783 748.863 377.302 748.863 376.686C748.863 376.061 748.657 375.58 748.247 375.244C747.845 374.908 747.243 374.74 746.441 374.74H743.501L744.313 373.844V379.514ZM759.425 383.14C758.659 383.14 757.955 383.014 757.311 382.762C756.667 382.51 756.107 382.16 755.631 381.712C755.155 381.255 754.786 380.723 754.525 380.116C754.263 379.5 754.133 378.828 754.133 378.1C754.133 377.372 754.263 376.705 754.525 376.098C754.786 375.482 755.155 374.95 755.631 374.502C756.107 374.045 756.667 373.69 757.311 373.438C757.955 373.186 758.655 373.06 759.411 373.06C760.176 373.06 760.876 373.186 761.511 373.438C762.155 373.69 762.715 374.045 763.191 374.502C763.667 374.95 764.035 375.482 764.297 376.098C764.558 376.705 764.689 377.372 764.689 378.1C764.689 378.828 764.558 379.5 764.297 380.116C764.035 380.732 763.667 381.264 763.191 381.712C762.715 382.16 762.155 382.51 761.511 382.762C760.876 383.014 760.181 383.14 759.425 383.14ZM759.411 381.544C759.905 381.544 760.363 381.46 760.783 381.292C761.203 381.124 761.567 380.886 761.875 380.578C762.183 380.261 762.421 379.897 762.589 379.486C762.766 379.066 762.855 378.604 762.855 378.1C762.855 377.596 762.766 377.139 762.589 376.728C762.421 376.308 762.183 375.944 761.875 375.636C761.567 375.319 761.203 375.076 760.783 374.908C760.363 374.74 759.905 374.656 759.411 374.656C758.916 374.656 758.459 374.74 758.039 374.908C757.628 375.076 757.264 375.319 756.947 375.636C756.639 375.944 756.396 376.308 756.219 376.728C756.051 377.139 755.967 377.596 755.967 378.1C755.967 378.595 756.051 379.052 756.219 379.472C756.396 379.892 756.639 380.261 756.947 380.578C757.255 380.886 757.619 381.124 758.039 381.292C758.459 381.46 758.916 381.544 759.411 381.544ZM768.718 383V373.2H770.538V381.46H775.662V383H768.718ZM779.199 383V373.2H781.019V381.46H786.143V383H779.199ZM789.68 383V373.2H793.964C795.028 373.2 795.961 373.405 796.764 373.816C797.566 374.227 798.192 374.796 798.64 375.524C799.088 376.252 799.312 377.111 799.312 378.1C799.312 379.08 799.088 379.939 798.64 380.676C798.192 381.404 797.566 381.973 796.764 382.384C795.961 382.795 795.028 383 793.964 383H789.68ZM791.5 381.46H793.88C794.617 381.46 795.252 381.32 795.784 381.04C796.325 380.76 796.74 380.368 797.03 379.864C797.328 379.36 797.478 378.772 797.478 378.1C797.478 377.419 797.328 376.831 797.03 376.336C796.74 375.832 796.325 375.44 795.784 375.16C795.252 374.88 794.617 374.74 793.88 374.74H791.5V381.46ZM807.938 383.14C807.173 383.14 806.468 383.014 805.824 382.762C805.18 382.51 804.62 382.16 804.144 381.712C803.668 381.255 803.299 380.723 803.038 380.116C802.777 379.5 802.646 378.828 802.646 378.1C802.646 377.372 802.777 376.705 803.038 376.098C803.299 375.482 803.668 374.95 804.144 374.502C804.62 374.045 805.18 373.69 805.824 373.438C806.468 373.186 807.168 373.06 807.924 373.06C808.689 373.06 809.389 373.186 810.024 373.438C810.668 373.69 811.228 374.045 811.704 374.502C812.18 374.95 812.549 375.482 812.81 376.098C813.071 376.705 813.202 377.372 813.202 378.1C813.202 378.828 813.071 379.5 812.81 380.116C812.549 380.732 812.18 381.264 811.704 381.712C811.228 382.16 810.668 382.51 810.024 382.762C809.389 383.014 808.694 383.14 807.938 383.14ZM807.924 381.544C808.419 381.544 808.876 381.46 809.296 381.292C809.716 381.124 810.08 380.886 810.388 380.578C810.696 380.261 810.934 379.897 811.102 379.486C811.279 379.066 811.368 378.604 811.368 378.1C811.368 377.596 811.279 377.139 811.102 376.728C810.934 376.308 810.696 375.944 810.388 375.636C810.08 375.319 809.716 375.076 809.296 374.908C808.876 374.74 808.419 374.656 807.924 374.656C807.429 374.656 806.972 374.74 806.552 374.908C806.141 375.076 805.777 375.319 805.46 375.636C805.152 375.944 804.909 376.308 804.732 376.728C804.564 377.139 804.48 377.596 804.48 378.1C804.48 378.595 804.564 379.052 804.732 379.472C804.909 379.892 805.152 380.261 805.46 380.578C805.768 380.886 806.132 381.124 806.552 381.292C806.972 381.46 807.429 381.544 807.924 381.544ZM819.24 383L815.992 373.2H817.882L820.78 382.062H819.842L822.852 373.2H824.532L827.458 382.062H826.548L829.516 373.2H831.252L828.004 383H826.072L823.398 375.006H823.902L821.186 383H819.24ZM834.835 383V373.2H836.333L842.479 380.746H841.737V373.2H843.543V383H842.045L835.899 375.454H836.641V383H834.835Z" fill="white"/>
<path d="M900.723 218V207.5H908.719V218H900.723Z" fill="#333333"/>
</g>
<defs>
<linearGradient id="paint0_linear_233_10" x1="0" y1="198" x2="1584" y2="198" gradientUnits="userSpaceOnUse">
<stop/>
<stop offset="1" stop-color="#434343"/>
</linearGradient>
<clipPath id="clip0_233_10">
<rect width="1584" height="396" fill="white"/>
</clipPath>
<clipPath id="clip1_233_10">
<rect width="68" height="68" fill="white" transform="translate(1326.71 269) rotate(41.1142)"/>
</clipPath>
<clipPath id="clip2_233_10">
<rect width="68" height="4" fill="white" transform="translate(1326.71 269) rotate(41.1142)"/>
</clipPath>
<clipPath id="clip3_233_10">
<rect width="68" height="4" fill="white" transform="translate(1316.19 281.054) rotate(41.1142)"/>
</clipPath>
<clipPath id="clip4_233_10">
<rect width="68" height="4" fill="white" transform="translate(1305.67 293.109) rotate(41.1142)"/>
</clipPath>
<clipPath id="clip5_233_10">
<rect width="68" height="4" fill="white" transform="translate(1295.15 305.163) rotate(41.1142)"/>
</clipPath>
<clipPath id="clip6_233_10">
<rect width="68" height="4" fill="white" transform="translate(1284.63 317.218) rotate(41.1142)"/>
</clipPath>
</defs>
</svg>
